<svg width="24" height="24" viewBox="0 0 24 24" fill="none" xmlns="http://www.w3.org/2000/svg">
<g id="Github">
<path id="Vector" d="M10.0684 20.502C10.0683 20.3553 10.0361 20.2104 9.97382 20.0777C9.91158 19.9449 9.82089 19.8274 9.70818 19.7335C9.59548 19.6397 9.46351 19.5718 9.32163 19.5347C9.17976 19.4975 9.03145 19.492 8.88722 19.5186C7.57814 19.7588 5.92531 19.7949 5.48585 18.5606C5.10266 17.6046 4.46792 16.7701 3.64894 16.1456C3.59051 16.1138 3.53481 16.0772 3.48244 16.0362C3.41076 15.8471 3.28345 15.6842 3.1173 15.569C2.95115 15.4537 2.75397 15.3916 2.55177 15.3907H2.54689C2.28249 15.3906 2.02882 15.4952 1.8414 15.6817C1.65398 15.8682 1.54809 16.1214 1.54689 16.3858C1.54298 17.2012 2.35789 17.7237 2.68849 17.9004C3.07833 18.2921 3.39164 18.7532 3.61232 19.2598C3.97658 20.2833 5.03517 21.836 8.07814 21.6358C8.07914 21.671 8.08009 21.7042 8.08058 21.7344L8.08497 22.002C8.08497 22.2672 8.19033 22.5216 8.37786 22.7091C8.5654 22.8967 8.81975 23.002 9.08497 23.002C9.35019 23.002 9.60454 22.8967 9.79208 22.7091C9.97961 22.5216 10.085 22.2672 10.085 22.002L10.0801 21.6837C10.0752 21.4942 10.0684 21.2197 10.0684 20.502ZM20.7354 5.37596C20.7671 5.25096 20.7984 5.11229 20.8257 4.95604C20.9874 3.84163 20.8464 2.70423 20.4175 1.66304C20.3634 1.5273 20.2802 1.40505 20.1739 1.30484C20.0675 1.20464 19.9405 1.12891 19.8018 1.08297C19.4458 0.962852 18.1314 0.726522 15.6177 2.33297C13.5282 1.84127 11.3532 1.84127 9.2637 2.33297C6.76027 0.750052 5.45265 0.964852 5.10011 1.07813C4.95797 1.12221 4.8275 1.19754 4.71826 1.29859C4.60901 1.39964 4.52376 1.52386 4.46876 1.66213C4.03106 2.72331 3.8916 3.88391 4.06544 5.01857C4.08986 5.1465 4.11622 5.26467 4.14357 5.37306C3.31514 6.4765 2.87388 7.82243 2.8882 9.20216C2.8855 9.51 2.89968 9.81775 2.93068 10.124C3.26468 14.7266 6.26468 16.1084 8.35499 16.583C8.31154 16.708 8.27199 16.8418 8.23683 16.9834C8.17417 17.2407 8.2161 17.5124 8.35343 17.7388C8.49076 17.9652 8.71227 18.1279 8.9694 18.1913C9.22653 18.2546 9.49828 18.2134 9.72507 18.0767C9.95187 17.94 10.1152 17.7189 10.1792 17.4619C10.2428 17.1287 10.4059 16.8227 10.647 16.584C10.7927 16.4564 10.8983 16.2892 10.9507 16.1027C11.0032 15.9162 11.0004 15.7185 10.9425 15.5336C10.8847 15.3487 10.7744 15.1846 10.625 15.0613C10.4756 14.9379 10.2936 14.8607 10.1011 14.8389C6.64699 14.4444 5.14747 13.0371 4.92189 9.94045C4.8969 9.69518 4.88565 9.4487 4.8882 9.20217C4.87215 8.21883 5.19703 7.26025 5.80763 6.48928C5.86898 6.4089 5.93433 6.33166 6.00343 6.25783C6.12586 6.12083 6.20818 5.95275 6.24134 5.77204C6.27451 5.59132 6.25724 5.40496 6.19143 5.23342C6.12396 5.05295 6.07202 4.86705 6.03616 4.67775C5.95469 4.13947 5.98141 3.59034 6.11476 3.06251C6.98389 3.30798 7.80188 3.70755 8.52976 4.24219C8.65013 4.32237 8.78633 4.37572 8.92913 4.39864C9.07193 4.42155 9.21799 4.4135 9.3574 4.37501C11.3785 3.82651 13.5093 3.82686 15.5302 4.37601C15.6704 4.41445 15.8172 4.42205 15.9606 4.39828C16.104 4.37451 16.2405 4.31994 16.3608 4.23832C17.0853 3.70146 17.8998 3.29832 18.7661 3.04789C18.8988 3.56305 18.9285 4.09935 18.8535 4.62601C18.8173 4.83355 18.7607 5.03701 18.6845 5.23344C18.6187 5.40498 18.6015 5.59134 18.6346 5.77206C18.6678 5.95277 18.7501 6.12085 18.8725 6.25785C18.9497 6.34476 19.0268 6.43851 19.0962 6.5264C19.7025 7.28432 20.0218 8.23188 19.9981 9.20216C19.9999 9.46177 19.9873 9.72128 19.9605 9.9795C19.7402 13.0352 18.2349 14.4434 14.7647 14.8389C14.5721 14.8608 14.3901 14.9382 14.2407 15.0617C14.0914 15.1851 13.9811 15.3493 13.9233 15.5343C13.8655 15.7193 13.8627 15.917 13.9153 16.1036C13.9678 16.2901 14.0734 16.4574 14.2192 16.585C14.4679 16.83 14.6313 17.1483 14.6856 17.4932C14.7531 17.7609 14.7842 18.0365 14.7778 18.3125V20.6465C14.7681 21.294 14.7681 21.7793 14.7681 22.002C14.7681 22.2672 14.8734 22.5215 15.061 22.7091C15.2485 22.8966 15.5028 23.002 15.7681 23.002C16.0333 23.002 16.2876 22.8966 16.4752 22.7091C16.6627 22.5215 16.7681 22.2672 16.7681 22.002C16.7681 21.7852 16.7681 21.3096 16.7778 20.6621V18.3125C16.7859 17.8703 16.7338 17.4291 16.623 17.001C16.5914 16.8604 16.5526 16.7216 16.5068 16.585C18.0281 16.3323 19.4103 15.5479 20.4074 14.3716C21.4046 13.1953 21.952 11.7033 21.9521 10.1612C21.9851 9.84258 22.0004 9.52243 21.9981 9.20216C22.0203 7.82093 21.5753 6.47269 20.7354 5.37598L20.7354 5.37596Z" fill="#232E35"/>
</g>
</svg>
