<svg width="24" height="24" viewBox="0 0 24 24" fill="none" xmlns="http://www.w3.org/2000/svg">
<g id="Linkedin">
<path id="Vector" d="M17.5012 8.99989C16.6059 8.9995 15.7245 9.22095 14.9358 9.64442C14.8638 9.45484 14.7358 9.29165 14.5689 9.17653C14.402 9.0614 14.204 8.99979 14.0012 8.99989H10.0012C9.86985 8.99981 9.73978 9.02563 9.61842 9.07585C9.49706 9.12608 9.38679 9.19974 9.29392 9.29261C9.20104 9.38549 9.12739 9.49575 9.07716 9.61711C9.02693 9.73847 9.00112 9.86854 9.00119 9.99989V21.9999C9.00112 22.1312 9.02693 22.2613 9.07716 22.3827C9.12738 22.504 9.20104 22.6143 9.29391 22.7072C9.38679 22.8 9.49706 22.8737 9.61842 22.9239C9.73978 22.9741 9.86985 23 10.0012 22.9999H14.0012C14.1325 23 14.2626 22.9741 14.384 22.9239C14.5053 22.8737 14.6156 22.8 14.7085 22.7072C14.8013 22.6143 14.875 22.504 14.9252 22.3827C14.9755 22.2613 15.0013 22.1312 15.0012 21.9999V16.4999C15.0012 16.2347 15.1065 15.9803 15.2941 15.7928C15.4816 15.6052 15.736 15.4999 16.0012 15.4999C16.2664 15.4999 16.5208 15.6052 16.7083 15.7928C16.8958 15.9803 17.0012 16.2347 17.0012 16.4999V21.9999C17.0011 22.1312 17.0269 22.2613 17.0772 22.3827C17.1274 22.504 17.201 22.6143 17.2939 22.7072C17.3868 22.8 17.4971 22.8737 17.6184 22.9239C17.7398 22.9741 17.8698 23 18.0012 22.9999H22.0012C22.1325 23 22.2626 22.9741 22.384 22.9239C22.5053 22.8737 22.6156 22.8 22.7085 22.7072C22.8013 22.6143 22.875 22.504 22.9252 22.3827C22.9755 22.2613 23.0013 22.1312 23.0012 21.9999V14.4999C22.9994 13.0418 22.4193 11.6439 21.3883 10.6128C20.3572 9.58174 18.9593 9.0017 17.5012 8.99989V8.99989ZM21.0012 20.9999H19.0012V16.4999C19.0012 15.7042 18.6851 14.9412 18.1225 14.3786C17.5599 13.816 16.7968 13.4999 16.0012 13.4999C15.2055 13.4999 14.4425 13.816 13.8799 14.3786C13.3173 14.9412 13.0012 15.7042 13.0012 16.4999V20.9999H11.0012V10.9999H13.0012V11.703C13.0013 11.9102 13.0658 12.1123 13.1856 12.2813C13.3055 12.4503 13.4749 12.5779 13.6704 12.6465C13.8659 12.7151 14.0779 12.7213 14.2771 12.6642C14.4763 12.6072 14.6529 12.4897 14.7824 12.328C15.2312 11.7581 15.8468 11.3425 16.5432 11.1393C17.2396 10.9361 17.982 10.9554 18.6669 11.1946C19.3518 11.4338 19.9449 11.8809 20.3634 12.4734C20.7818 13.066 21.0048 13.7745 21.0012 14.4999V20.9999ZM7.00119 8.99989H3.00119C2.86985 8.99981 2.73978 9.02563 2.61842 9.07585C2.49706 9.12608 2.38679 9.19974 2.29392 9.29261C2.20104 9.38549 2.12739 9.49575 2.07716 9.61711C2.02693 9.73847 2.00112 9.86854 2.00119 9.99989V21.9999C2.00112 22.1312 2.02693 22.2613 2.07716 22.3827C2.12738 22.504 2.20104 22.6143 2.29391 22.7072C2.38679 22.8 2.49706 22.8737 2.61842 22.9239C2.73978 22.9741 2.86985 23 3.00119 22.9999H7.00119C7.13253 23 7.26261 22.9741 7.38397 22.9239C7.50533 22.8737 7.61559 22.8 7.70847 22.7072C7.80134 22.6143 7.875 22.504 7.92523 22.3827C7.97545 22.2613 8.00127 22.1312 8.00119 21.9999V9.99989C8.00127 9.86854 7.97545 9.73847 7.92522 9.61711C7.875 9.49575 7.80134 9.38549 7.70847 9.29261C7.61559 9.19974 7.50532 9.12608 7.38396 9.07585C7.2626 9.02563 7.13253 8.99981 7.00119 8.99989V8.99989ZM6.00119 20.9999H4.00119V10.9999H6.00119V20.9999ZM5.01584 1.54289C4.5782 1.51669 4.13981 1.57978 3.72732 1.72833C3.31483 1.87688 2.93686 2.10777 2.61641 2.40698C2.29595 2.70618 2.03971 3.06744 1.86325 3.46879C1.68679 3.87013 1.59381 4.30317 1.58997 4.74158C1.58612 5.17998 1.67149 5.61459 1.84088 6.01897C2.01026 6.42335 2.26013 6.78905 2.57529 7.09383C2.89044 7.39861 3.2643 7.6361 3.67412 7.79186C4.08394 7.94762 4.52116 8.0184 4.95919 7.99989H4.98751C5.42631 8.02595 5.86581 7.96227 6.27917 7.81274C6.69252 7.6632 7.07105 7.43096 7.39161 7.13019C7.71218 6.82943 7.96805 6.46646 8.1436 6.06346C8.31915 5.66047 8.41068 5.22591 8.41261 4.78635C8.41454 4.34678 8.32682 3.91144 8.15481 3.50692C7.98281 3.1024 7.73013 2.7372 7.41221 2.43363C7.0943 2.13007 6.71782 1.89451 6.3058 1.74136C5.89377 1.58821 5.45484 1.52067 5.01583 1.54289H5.01584ZM4.98752 5.99989H4.95919C4.78626 6.02089 4.61083 6.00467 4.44468 5.95231C4.27853 5.89996 4.12549 5.81269 3.99583 5.69635C3.86617 5.58001 3.76289 5.43729 3.69291 5.27776C3.62292 5.11823 3.58786 4.94559 3.59006 4.7714C3.59006 4.0253 4.14963 3.54288 5.01584 3.54288C5.19054 3.51959 5.3682 3.53401 5.53686 3.58516C5.70551 3.63631 5.86125 3.72302 5.99358 3.83943C6.1259 3.95584 6.23175 4.09926 6.30398 4.26002C6.37621 4.42078 6.41316 4.59515 6.41232 4.7714C6.41232 5.51749 5.85275 5.99989 4.98752 5.99989Z" fill="#232E35"/>
</g>
</svg>
