<svg width="114" height="41" viewBox="0 0 114 41" fill="none" xmlns="http://www.w3.org/2000/svg">
<g clip-path="url(#clip0_722_1271)">
<path d="M56.3008 30.4996H59.8008L61.1008 26.6996H68.0008L69.3008 30.4996H72.9008L66.7008 12.5996H62.5008L56.3008 30.4996ZM62.0008 23.7996L64.5008 16.2996L67.0008 23.7996H62.0008Z" fill="#232E35"/>
<path d="M74.5 30.5008H77.6V12.3008H74.5V30.5008Z" fill="#232E35"/>
<path d="M86.8016 30.7992C88.1016 30.7992 89.3016 30.4992 90.3016 29.8992C91.3016 29.2992 92.0016 28.4992 92.4016 27.5992L89.9016 26.3992C89.6016 26.8992 89.2016 27.2992 88.7016 27.5992C88.2016 27.8992 87.6016 28.0992 86.9016 28.0992C86.0016 28.0992 85.2016 27.7992 84.5016 27.1992C83.8016 26.5992 83.5016 25.8992 83.4016 24.8992H92.8016C92.9016 24.6992 92.9016 24.4992 92.9016 24.2992C92.9016 24.0992 92.9016 23.7992 92.9016 23.5992C92.9016 22.3992 92.7016 21.3992 92.2016 20.3992C91.7016 19.3992 91.0016 18.6992 90.0016 18.0992C89.1016 17.4992 87.9016 17.1992 86.5016 17.1992C85.3016 17.1992 84.2016 17.4992 83.2016 18.0992C82.2016 18.6992 81.4016 19.4992 80.9016 20.4992C80.3016 21.4992 80.1016 22.6992 80.1016 23.9992C80.1016 25.2992 80.4016 26.3992 80.9016 27.4992C81.5016 28.4992 82.2016 29.3992 83.3016 29.9992C84.3016 30.4992 85.4016 30.7992 86.8016 30.7992ZM86.5016 19.6992C87.3016 19.6992 88.0016 19.9992 88.6016 20.4992C89.2016 20.9992 89.5016 21.5992 89.5016 22.3992H83.4016C83.6016 21.4992 83.9016 20.8992 84.5016 20.3992C85.1016 19.9992 85.8016 19.6992 86.5016 19.6992Z" fill="#232E35"/>
<path d="M93.8984 30.5004H97.5984L100.298 26.4004L102.998 30.5004H106.698L102.198 23.9004L106.798 17.4004H103.098L100.398 21.5004L97.5984 17.4004H93.8984L98.4984 23.9004L93.8984 30.5004Z" fill="#232E35"/>
<path d="M109.898 30.4996H113.098V27.0996H109.898V30.4996Z" fill="#232E35"/>
<path d="M20 0.5C9 0.5 0 9.5 0 20.5C0 31.5 9 40.5 20 40.5C31 40.5 40 31.5 40 20.5C40 9.5 31 0.5 20 0.5ZM11.8 28C9.6 28 7.8 26.2 7.8 24C7.8 21.8 9.6 20 11.8 20C14 20 15.8 21.8 15.8 24C15.8 26.2 14 28 11.8 28ZM28.5 26.9C26.7 28 24.3 27.3 23.2 25.5L17.6 15.8C16.5 14 17.2 11.6 19 10.5C20.8 9.4 23.2 10.1 24.3 11.9L29.9 21.6C31 23.5 30.3 25.9 28.5 26.9Z" fill="#232E35"/>
</g>
<defs>
<clipPath id="clip0_722_1271">
<rect width="114" height="41" fill="white"/>
</clipPath>
</defs>
</svg>
